<svg xmlns="http://www.w3.org/2000/svg" width="281.799" height="35.094" viewBox="0 0 281.799 35.094">
	<defs>
		<style>
			.a{fill:#0015b7;}.b{fill:none;stroke:#0015b7;stroke-width:1.703px;}
		</style>
	</defs>
	<path class="a" d="M21.864,26.689H5.962l-4.07,9.228H0L14.859,2.46h.614L31.092,35.921H26.173Zm-.8-1.7L13.679,9.134,6.722,24.987Z" transform="translate(0 -1.466)" />
	<path class="a" d="M90.772,24.53H87.506V36.41H83.25V3.28h4.26V22.969h2.51l11.641-10.223h2.32L93.76,21.6,105.45,36.41h-4.968Z" transform="translate(-49.599 -1.954)" />
	<path class="a" d="M158.878,26.69,148.421,50.636h-.57L136.4,26.69h4.592l8.234,17.794,7.712-17.794Z" transform="translate(-81.265 -15.901)" />
	<path class="a" d="M212.3,35.65V49.991h-1.419l-2.413-8.044a10.637,10.637,0,0,1-10.413,8.185c-4.26,0-6.625-2.32-6.625-5.489,0-5.065,5.679-8.044,16.613-8.755V34.7c0-4.543-1.75-7.429-6.435-7.429-4.543,0-7.478,3.028-7.478,8.375h-1.661c0-6.435,3.788-10.13,10.13-10.13C208.892,25.52,212.3,29.118,212.3,35.65Zm-4.26,1.609c-7.809.521-12.353,2.555-12.353,6.718,0,2.32,1.516,3.788,4.353,3.788C204.207,47.764,208.039,43.835,208.039,37.258Z" transform="translate(-114.051 -15.204)" />
	<path class="a" d="M268,25.52v1.989c-6.532-.141-9.087,5.016-9.087,11.641V49.656h-4.26V25.993h4.26v6.294C260.378,28.362,263.405,25.52,268,25.52Z" transform="translate(-151.716 -15.204)" />
	<path class="a" d="M296.528,2.652a2.675,2.675,0,0,1-5.348,0,2.674,2.674,0,0,1,5.348,0Zm-4.733,8.137h4.26V34.451h-4.26Z" transform="translate(-173.48)" />
	<path class="a" d="M334.458,41.383c-.473,5.631-4.636,8.755-10.081,8.755-8,0-12.587-4.923-12.587-12.4,0-7.288,4.45-12.211,11.831-12.211,6.2,0,10.744,4.26,10.506,12.4H316.285c.141,6.767,2.886,10.364,8.848,10.364a7.36,7.36,0,0,0,7.712-6.908ZM316.285,36.6h13.723c-.093-5.538-2.082-9.7-6.342-9.7C319.03,26.9,316.475,30.211,316.285,36.6Z" transform="translate(-185.76 -15.21)" />
	<path class="a" d="M388.6,33.013c0,6.484-3.359,8.707-7.2,8.707-3.929,0-7.147-2.272-7.147-7.761V19.192h-4.4v-1.56h4.4l2.886-6.152h1.374v6.152h9.608v1.56h-9.608V34.856c0,3.218,1.419,4.875,4.022,4.875,2.413,0,4.26-1.75,4.3-6.722H388.6Z" transform="translate(-220.357 -6.84)" />
	<g transform="translate(200.641 5.154)">
		<path class="a" d="M499.127,14.116a1.379,1.379,0,0,1-2.757,0,1.378,1.378,0,0,1,2.757,0Zm-2.441,4.192h2.195V30.5h-2.195Z" transform="translate(-496.37 -12.75)" />
		<path class="a" d="M533.177,27.068c0,2.583-2.292,4.438-6.338,4.438H520.38V14.44h6.338c3.464,0,5.558,1.585,5.558,4.07,0,2.365-1.73,4-5.024,4.119v.121C531.156,22.755,533.177,24.388,533.177,27.068ZM522.7,15.293v7h3.193c2.733,0,4.07-1.488,4.07-3.682,0-1.977-1.512-3.315-3.973-3.315Zm8.165,11.7c0-2.365-1.609-3.876-4.9-3.876H522.7V30.7h3.315C529.107,30.7,530.861,29.263,530.861,26.995Z" transform="translate(-510.675 -13.757)" />
		<path class="a" d="M566.738,34.075c-.243,2.9-2.389,4.511-5.194,4.511-4.119,0-6.484-2.534-6.484-6.387,0-3.755,2.292-6.29,6.1-6.29,3.193,0,5.534,2.195,5.412,6.387h-9.192c.073,3.488,1.488,5.34,4.56,5.34a3.792,3.792,0,0,0,3.973-3.561h.829Zm-9.366-2.466h7.07c-.049-2.854-1.071-5-3.266-5C558.787,26.613,557.473,28.319,557.372,31.609Z" transform="translate(-531.337 -20.591)" />
		<path class="a" d="M595.406,25.9v1.023c-3.363-.073-4.681,2.583-4.681,6v5.412H588.53V26.143h2.195v3.242A4.88,4.88,0,0,1,595.406,25.9Z" transform="translate(-551.277 -20.585)" />
		<path class="a" d="M615.315,31.063c0,2.607-2.462,4.046-6.241,4.046a7.635,7.635,0,0,1-5.7-2.025l.489-.635A6.951,6.951,0,0,0,609.1,34.4c2.927,0,4.657-.974,4.657-2.631,0-1.342-1.023-1.952-2.854-1.952h-5.073V24.8A3.091,3.091,0,0,1,604.3,22.09c0-2.219,2.049-3.561,5.388-3.561h.194c3.072,0,4.657-.974,4.657-2.389,0-1.391-1.391-2.1-3.585-1.706v-.8c2.68-.416,4.39.562,4.39,2.34,0,1.391-1.1,2.437-3.193,2.878,1.8.513,2.83,1.657,2.83,3.242,0,2.243-1.977,3.61-5.267,3.61a8.939,8.939,0,0,1-3-.465v2.534h4.438C613.73,27.773,615.315,28.945,615.315,31.063Zm-8.9-8.994a2.906,2.906,0,0,0,3.218,3,2.875,2.875,0,0,0,3.169-3,2.845,2.845,0,0,0-3.169-2.9C607.683,19.167,606.414,20.287,606.414,22.07Z" transform="translate(-560.119 -13.217)" />
		<path class="a" d="M647.738,34.075c-.243,2.9-2.389,4.511-5.194,4.511-4.119,0-6.484-2.534-6.484-6.387,0-3.755,2.292-6.29,6.1-6.29,3.193,0,5.534,2.195,5.412,6.387h-9.192c.073,3.488,1.487,5.34,4.56,5.34a3.792,3.792,0,0,0,3.974-3.561h.829Zm-9.366-2.466h7.07c-.049-2.854-1.071-5-3.266-5C639.787,26.613,638.469,28.319,638.372,31.609Z" transform="translate(-579.595 -20.591)" />
		<path class="a" d="M680.689,30.405v7.923h-2.195V30.454c0-2.195-1.221-3.387-3-3.387-2.074,0-3.585,1.73-3.779,4.511v6.754H669.52v-12.2h2.195v3.339A4.582,4.582,0,0,1,676.3,25.89,4.184,4.184,0,0,1,680.689,30.405Z" transform="translate(-599.53 -20.579)" />
	</g>
	<line class="b" y2="30.074" transform="translate(184.84 5.02)" />
</svg>
