<?xml version="1.0" encoding="utf-8"?>
<!-- Generator: Adobe Illustrator 24.3.0, SVG Export Plug-In . SVG Version: 6.00 Build 0)  -->
<svg version="1.1" id="Layer_1" xmlns="http://www.w3.org/2000/svg" xmlns:xlink="http://www.w3.org/1999/xlink" x="0px" y="0px"
	 viewBox="0 0 201 47" style="enable-background:new 0 0 201 47;" xml:space="preserve">
<style type="text/css">
	.st0{fill:#333244;}
	.st1{fill:#4177FF;}
	.st2{fill:#FFD429;}
	.st3{fill:#FF3F00;}
</style>
<g>
	<g>
		<path class="st0" d="M45,0.3h10c3.9,0,6.6,2.2,6.6,5.3c0,2.1-1.2,3.7-3.3,4.6c2.4,0.6,4,2.3,4,4.9c0,3.4-2.8,5.6-6.9,5.6H45V0.3z
			 M54.9,8.5c1.9,0,2.9-0.9,2.9-2.3c0-1.4-1.2-2.2-2.9-2.2h-6v4.5H54.9z M55.5,17.1c1.7,0,2.9-1,2.9-2.5c0-1.4-1.1-2.6-2.9-2.6h-6.6
			v5H55.5z"/>
		<path class="st0" d="M74.7,15.4l3.2,1.3C77,19.3,74.8,21,71.4,21c-4.3,0-7.3-2.9-7.3-7.3c0-3.9,2.7-7.1,6.9-7.1
			c3.8,0,6.4,2.4,6.4,6.2c0,0.6-0.1,1.2-0.2,1.7h-9.4c0.1,2.2,1.8,3.3,3.6,3.3C73.3,17.8,74.3,16.9,74.7,15.4z M67.9,12h5.9
			c0,0,0-0.1,0-0.1c0-1.4-1.1-2.3-2.8-2.3C69.5,9.6,68.2,10.5,67.9,12z"/>
		<path class="st0" d="M83.9,7v1.8c0.6-1.2,1.7-2.1,3.3-2.1c2.6,0,4,1.8,4,4.1c0,0.6-0.1,1.1-0.2,1.7h-3.5c0.1-0.4,0.1-0.7,0.1-1
			c0-1-0.7-1.7-1.7-1.7c-1.2,0-1.9,0.8-1.9,2.2v8.9h-3.7V7H83.9z"/>
		<path class="st0" d="M92.9,22.7l3.3-1.5c0.4,1.6,1.7,2.5,3.3,2.5c2.3,0,3.3-1.5,3.3-3.9v-1.3c-0.8,1.3-2.2,2.2-4.4,2.2
			c-3.6,0-6.3-2.8-6.3-6.8c0-4.4,3.1-7.2,6.6-7.2c2,0,3.3,0.8,4.2,1.9V7h3.7v12.6c0,4.3-2.3,7.3-7.1,7.3
			C96.1,26.9,93.9,25.5,92.9,22.7z M103.1,13.8c0-2.4-1.6-3.9-3.6-3.9c-1.9,0-3.5,1.4-3.5,4c0,2.4,1.6,3.7,3.6,3.7
			C101.5,17.6,103.1,16,103.1,13.8z"/>
		<path class="st0" d="M119,15.5l3.2,1.3c-0.9,2.6-3.1,4.3-6.4,4.3c-4.3,0-7.3-2.9-7.3-7.3c0-3.9,2.7-7.1,6.9-7.1
			c3.8,0,6.4,2.4,6.4,6.2c0,0.6-0.1,1.2-0.2,1.7h-9.4c0.1,2.2,1.8,3.3,3.6,3.3C117.6,17.9,118.6,17,119,15.5z M112.2,12.1h5.9
			c0,0,0-0.1,0-0.1c0-1.4-1.1-2.3-2.8-2.3C113.8,9.7,112.5,10.6,112.2,12.1z"/>
		<path class="st0" d="M124.6,20.8V7h3.7v1.8c0.9-1.5,2.5-2.1,4.2-2.1c2.9,0,5,1.8,5,5.1v9h-3.7v-8c0-1.9-1-3.1-2.6-3.1
			c-1.6,0-2.9,1.2-2.9,3.4v7.6H124.6z"/>
		<path class="st0" d="M62.8,46.4h-4.7l-5.9-9.3l-3.3,3.6v5.7H45V26h3.9v9.2l8.4-9.2h5l-7.5,8.1L62.8,46.4z"/>
		<path class="st0" d="M65.3,26H69v20.4h-3.7V26z"/>
		<path class="st0" d="M71.8,42.4c0-3.1,2.3-4.4,5.4-4.4c0.8,0,1.6,0.1,2.4,0.3l1.2,0.3v-0.9c0-1.6-1.2-2.5-2.8-2.5
			c-1.7,0-2.7,1-3,2.3l-3.2-0.9c0.7-2.6,2.8-4.3,6.3-4.3c4.2,0,6.4,2,6.4,5.6v8.5h-3.4v-2.1c-0.9,1.5-2.2,2.4-4.6,2.4
			C74,46.7,71.8,45.1,71.8,42.4z M80.8,41.3v-0.1l-0.8-0.3c-0.8-0.3-1.5-0.4-2.2-0.4c-1.3,0-2.2,0.6-2.2,1.7c0,1,0.7,1.7,2.2,1.7
			C79.5,43.8,80.8,42.9,80.8,41.3z"/>
		<path class="st0" d="M88.4,41.7v-6.1h-2.9v-3.1h2.9V28h3.7v4.5h5.2v3.1h-5.2v6.1c0,1.1,0.7,1.7,1.6,1.7c1,0,1.5-0.6,1.6-1.9
			l3.4,0.6c-0.4,2.9-2.2,4.6-5.2,4.6C90.1,46.7,88.4,44.7,88.4,41.7z"/>
		<path class="st0" d="M104.7,32.6v1.8c0.6-1.2,1.7-2.1,3.3-2.1c2.6,0,4,1.8,4,4.1c0,0.6-0.1,1.1-0.2,1.7h-3.5
			c0.1-0.4,0.1-0.7,0.1-1c0-1-0.7-1.7-1.7-1.7c-1.2,0-1.9,0.8-1.9,2.2v8.9H101V32.6H104.7z"/>
		<path class="st0" d="M123.7,41.1l3.2,1.3c-0.9,2.6-3.1,4.3-6.4,4.3c-4.3,0-7.3-2.9-7.3-7.3c0-3.9,2.7-7.1,6.9-7.1
			c3.8,0,6.4,2.4,6.4,6.2c0,0.6-0.1,1.2-0.2,1.7h-9.4c0.1,2.2,1.8,3.3,3.6,3.3C122.2,43.5,123.3,42.6,123.7,41.1z M116.8,37.7h5.9
			c0,0,0-0.1,0-0.1c0-1.4-1.1-2.3-2.8-2.3C118.5,35.3,117.2,36.2,116.8,37.7z"/>
		<path class="st0" d="M142.1,46.4h-4.3l-3.8-5.5l-1.4,1.5v4h-3.7V26h3.7v11.7l4.7-5.1h4.6l-5.4,5.7L142.1,46.4z"/>
		<path class="st0" d="M144.2,26h3.7v20.4h-3.7V26z"/>
		<path class="st0" d="M163.9,32.6v13.8h-3.7v-2c-0.7,1.4-2.2,2.3-4.2,2.3c-3,0-5.2-1.7-5.2-5.3v-8.8h3.7v7.8c0,2,0.9,3.1,2.5,3.1
			c2,0,3.1-1.5,3.1-3.8v-7.1H163.9z"/>
		<path class="st0" d="M170.5,26v8.7c0.9-1.4,2.6-2.4,4.4-2.4c3.7,0,6.5,2.9,6.5,7.3c0,4.4-2.8,7.1-6.7,7.1c-1.8,0-3.4-0.7-4.4-2.1
			v1.8h-3.6V26H170.5z M174,43.5c2,0,3.7-1.5,3.7-4c0-2.6-1.7-4-3.7-4c-1.9,0-3.7,1.4-3.7,4C170.4,42.1,172.1,43.5,174,43.5z"/>
		<path class="st0" d="M187.1,26v8.7c0.9-1.4,2.6-2.4,4.4-2.4c3.7,0,6.5,2.9,6.5,7.3c0,4.4-2.8,7.1-6.7,7.1c-1.8,0-3.4-0.7-4.4-2.1
			v1.8h-3.6V26H187.1z M190.6,43.5c2,0,3.7-1.5,3.7-4c0-2.6-1.7-4-3.7-4c-1.9,0-3.7,1.4-3.7,4C186.9,42.1,188.7,43.5,190.6,43.5z"/>
	</g>
	<rect x="30.3" y="0.3" class="st1" width="4.2" height="46.1"/>
	<path class="st2" d="M7.8,16C3.5,16,0,12.5,0,8.2s3.5-7.8,7.8-7.8s7.8,3.5,7.8,7.8S12.1,16,7.8,16z M7.8,4.6c-2,0-3.6,1.6-3.6,3.6
		s1.6,3.6,3.6,3.6c2,0,3.6-1.6,3.6-3.6S9.8,4.6,7.8,4.6z"/>
	<path class="st3" d="M22,46.4h-4.2v-3.1c0-1.9-0.2-3.7-0.5-5.5c-3.5,0.5-5.9,0.1-8.3-0.5C5.8,36.6-0.6,32.9,0,27.3
		c0.3-2.5,1.7-4.4,4-5.4c1.5-0.6,2.9-0.6,3.2-0.6c5.3,0,9.6,3.5,12.4,10.2c0.1,0.3,0.3,0.7,0.4,1c1.2-0.9,1.9-2.3,1.9-3.8
		c0-1.3-0.7-2.6-1.7-3.4c-2-1.5-3.3-3.7-3.5-6.2c-0.2-2.5,0.8-4.9,2.6-6.6l1.3-1.3c0.8-0.8,1.3-1.9,1.3-3V0.3h4.2v7.8
		c0,2.3-0.9,4.5-2.6,6.1l-1.3,1.3c-0.9,0.9-1.4,2.1-1.3,3.3c0.1,1.2,0.7,2.4,1.7,3.1c2.2,1.6,3.5,4.1,3.5,6.8c0,3.4-1.9,6.5-4.9,8
		c0.5,2.2,0.7,4.4,0.7,6.7V46.4z M7.2,25.4c-0.6,0-2.8,0.2-3,2.3c-0.3,2.7,3.1,5,5.7,5.7c1.3,0.3,3.7,0.7,6.2,0.4
		c-0.1-0.3-0.3-0.7-0.4-1C13.6,27.8,10.8,25.4,7.2,25.4L7.2,25.4C7.2,25.4,7.2,25.4,7.2,25.4z"/>
</g>
</svg>
