<?xml version="1.0" encoding="UTF-8"?> <svg xmlns="http://www.w3.org/2000/svg" id="Artwork" viewBox="0 0 340 110"><title>hut-logo-klatresenter-horisontal-pos</title><g><path d="M110.75,85.62l-1.53,1.53v2.4h-1.8V80.16h1.8V85L114,80.16h2L112,84.36l4.31,5.19h-2.1Z" fill="#ec6726"></path><path d="M118.93,80.16h1.8v7.91h5.06v1.48h-6.86Z" fill="#ec6726"></path><path d="M135.53,87.38h-4.85l-1,2.17h-1.85l4.35-9.39H134l4.37,9.39H136.5Zm-.6-1.37-1.82-4.1L131.29,86Z" fill="#ec6726"></path><path d="M142,81.64h-3.21V80.16H147v1.48h-3.21v7.91H142Z" fill="#ec6726"></path><path d="M156.09,89.55l-2-2.75h-2.56v2.74h-1.79V80.16h4a5.45,5.45,0,0,1,2.19.41,3,3,0,0,1,1.93,2.93,3.09,3.09,0,0,1-.53,1.83,3.23,3.23,0,0,1-1.53,1.14L158,89.55Zm-.65-7.43a2.82,2.82,0,0,0-1.78-.48h-2.11v3.74h2.11a2.76,2.76,0,0,0,1.78-.49,1.68,1.68,0,0,0,.61-1.39A1.64,1.64,0,0,0,155.44,82.12Z" fill="#ec6726"></path><path d="M168.51,88.09v1.46h-7.26V80.16h7.07v1.47h-5.27v2.44h4.67V85.5h-4.67v2.59Z" fill="#ec6726"></path><path d="M172.81,89.37a4.38,4.38,0,0,1-1.65-.81l.62-1.36a4.88,4.88,0,0,0,1.46.75,5.45,5.45,0,0,0,1.73.28,3.16,3.16,0,0,0,1.62-.33,1,1,0,0,0,.53-.89.85.85,0,0,0-.3-.66,2.24,2.24,0,0,0-.75-.41c-.31-.1-.72-.21-1.25-.33A14.89,14.89,0,0,1,173,85.1a3,3,0,0,1-1.18-.8,2.14,2.14,0,0,1-.49-1.47,2.43,2.43,0,0,1,.44-1.41,2.91,2.91,0,0,1,1.31-1,5.51,5.51,0,0,1,2.15-.38,6.88,6.88,0,0,1,1.75.22,4.84,4.84,0,0,1,1.48.61l-.57,1.36a5.12,5.12,0,0,0-1.33-.55,4.92,4.92,0,0,0-1.34-.19,2.78,2.78,0,0,0-1.58.35,1.05,1.05,0,0,0-.52.92.85.85,0,0,0,.29.66,2.19,2.19,0,0,0,.76.4c.3.1.72.21,1.24.34a13,13,0,0,1,1.78.5,3,3,0,0,1,1.18.8,2,2,0,0,1,.49,1.44,2.43,2.43,0,0,1-.44,1.41,3,3,0,0,1-1.32,1,5.54,5.54,0,0,1-2.16.37A7.42,7.42,0,0,1,172.81,89.37Z" fill="#ec6726"></path><path d="M189.38,88.09v1.46h-7.27V80.16h7.07v1.47h-5.27v2.44h4.68V85.5h-4.68v2.59Z" fill="#ec6726"></path><path d="M201.27,80.16v9.39h-1.48l-5.34-6.36v6.36h-1.78V80.16h1.48l5.34,6.36V80.16Z" fill="#ec6726"></path><path d="M207.21,81.64H204V80.16h8.22v1.48H209v7.91h-1.8Z" fill="#ec6726"></path><path d="M222.21,88.09v1.46H215V80.16H222v1.47h-5.28v2.44h4.68V85.5h-4.68v2.59Z" fill="#ec6726"></path><path d="M231.84,89.55l-2-2.75H227.3v2.74h-1.8V80.16h4a5.45,5.45,0,0,1,2.19.41,3.11,3.11,0,0,1,1.43,1.15,3.08,3.08,0,0,1,.5,1.78,3.16,3.16,0,0,1-.53,1.83,3.33,3.33,0,0,1-1.53,1.14l2.23,3.08Zm-.65-7.43a2.84,2.84,0,0,0-1.78-.48H227.3v3.74h2.11a2.78,2.78,0,0,0,1.78-.49,1.68,1.68,0,0,0,.61-1.39A1.64,1.64,0,0,0,231.19,82.12Z" fill="#ec6726"></path></g><g><path d="M74.59,32.7c.06.74,1.42,15.58,1.49,16.07a2.35,2.35,0,0,0,.53,1.1c.14.19,1.22,2.1,1.73,2.68a.2.2,0,0,0,.33,0c.65-.92,2.16-6.25,2.45-7.5S83.31,32,83.56,31a.53.53,0,0,1,.81-.41c.34.17,4.19,2.07,4.42,2.27a.55.55,0,0,1,.2.41c0,1.77-.68,8.41-.9,9.47s-3.16,13.8-4,14.8-8,10.2-8.28,10.61a3.71,3.71,0,0,1-1.17.89c-.6.34-6.8,2.91-8.2,3.35a.27.27,0,0,1-.31-.07,4.61,4.61,0,0,1-.76-1.62.61.61,0,0,1,.14-.4c.11-.13,6.74-8.58,8.42-10.85a1.1,1.1,0,0,0-.21-1.35c-.61-.74-3.67-4.14-4-4.65A5.7,5.7,0,0,1,69.26,51c0-.61-.53-12.26-.39-14.61a.74.74,0,0,1,.18-.5c.7-.71,4-3.17,4.63-3.74C74,31.84,74.52,32,74.59,32.7Z" fill="#2e2d2c"></path><path d="M20.79,27c-.46.21-.78.38-.79.82s0,9.1.05,10.71c.05,1.26.67,15.23,1,19.17.16,2.22.31,6,.36,6.48a1,1,0,0,0,.64.92,51.64,51.64,0,0,0,5,2.5,1.64,1.64,0,0,0,1.15-1.49c0-.93-.43-13.14-.42-13.47a.94.94,0,0,1,.34-.79c.35-.23,3.25-2.46,3.77-2.79s2-1,2.15-1.14.44.06.45.44.42,11.54.43,12.36.69,8.62.78,8.94,1.41,1.51,1.71,1.42a21,21,0,0,0,2-3c.24-.36,1.71-2.63,1.72-3.35s.51-17.14.52-17.91-.1-11.63-.1-12.24-.18-10.76-.23-11.13-.45-.56-.82-.68-4.41-1.4-4.76-1.4-1.18.94-1.21,1.33-.12,9.11-.12,9.82-.08,5.8-.09,6.16,0,.69-.3.83c-.46.22-6,3.67-6.32,3.79s-.43,0-.42-.48.08-9.36.06-10.07,0-7.17,0-7.4-1.17-.73-1.53-.64S21.4,26.75,20.79,27Z" fill="#2e2d2c"></path><path d="M70.44,24.11a3,3,0,0,0,0-1c0-.17-.08-.23-.25-.25l-4.77-.48s-.33,0-.42.13c-.29.51-1,2.07-1.63,3.22a21.37,21.37,0,0,1-1.16,2.1c-.19.27-.4.26-.68.14s-3-1.27-3.8-1.16-7.79,1.77-9,3S44.64,34,44.66,42s0,9.77.06,10.88,1.71,3.82,2.11,4.32.71.94.89,1.17a.33.33,0,0,1,0,.32c-.09.2-2.29,6.83-2.49,7.38a3.84,3.84,0,0,0-.14,1.4.47.47,0,0,0,.28.37,17.87,17.87,0,0,0,1.93.82.58.58,0,0,0,.54,0,6.61,6.61,0,0,0,1.66-1.27l4.62-7.27c.15-.24.25-.34.51-.35.46,0,5.67-.31,7.81-2.83,1.82-2.15,3.75-10.34,3.8-13.5a84,84,0,0,0-.76-10.28.88.88,0,0,1,.09-.69C65.87,32,70.07,24.73,70.44,24.11ZM59.58,47.28c-.35.72-1.09,4.62-1.87,4.89a17.39,17.39,0,0,1-4.66.36,2.18,2.18,0,0,1-1.88-1.82c-.19-1.85-.34-5.7-.34-8.15,0-3.25-.22-4.63,1-6.46s2.48-2.39,4-2.22a7.76,7.76,0,0,1,4.06,1.83c.63.79.7,4.65.46,7A21.84,21.84,0,0,1,59.58,47.28Z" fill="#2e2d2c"></path><path d="M107.19,25.7,99,24c-.92-.19-19.32-4-20-4s-1.5,1.17-1.87,1.83a15.51,15.51,0,0,0-.77,1.77.55.55,0,0,0,.32.69c2.13.65,15.67,4.41,16.26,4.61.26.08.24.28.21.59-.07.73-.87,12.66-.9,13.23S91.41,64.55,91.41,65a6.48,6.48,0,0,0,2,2.5c.48.19,3.7-4.57,3.82-4.8A6.36,6.36,0,0,0,97.94,61c0-.43,1-16.78,1.08-17.21s1.29-12.48,1.35-12.81,0-.62.51-.49,4.37,1.2,4.86,1.29a.49.49,0,0,0,.39-.15c.46-.67,2.67-3.05,2.61-3.56a10.72,10.72,0,0,0-.83-1.83A1.1,1.1,0,0,0,107.19,25.7Z" fill="#2e2d2c"></path><path d="M295.22,20.28c.32,0,15.53,1.35,16.49,1.46s8.78,1.4,9.47,1.56.72.69.71,1.49a40.55,40.55,0,0,1-.48,4.43c-.06.27-.24.55-.53.51-2.26-.31-6.45-1.05-7.09-1.13-.27,0-.32.17-.39.46-.16.72-1.45,12.5-1.52,13.07S309.41,60.71,309,63.76a2,2,0,0,1-.23.72A8.39,8.39,0,0,1,306.83,66a.61.61,0,0,1-.67-.17,49.49,49.49,0,0,1-2.2-5.1,6,6,0,0,1-.44-1.8c0-.42,1.83-16.69,1.8-17.14s.87-13.22.92-13.56.07-.6-.5-.72-9.9-2.15-10.4-2.28a.63.63,0,0,1-.34-.31,32.69,32.69,0,0,1-.51-4.22C294.49,20.48,294.8,20.22,295.22,20.28Z" fill="#2e2d2c"></path><path d="M248.57,30.07a26.43,26.43,0,0,1,3-1.45c.32-.11.44,0,.61.62s3.11,16,4.28,21.46,1.6,8.59,1.79,10.06.92,8.05.81,8.54-.88.42-1.13.42-3.43-.1-3.71-.13-.75-.69-.77-.92S251.64,59,251.31,57s-1.66-10.47-1.76-11.26-.36-1.87-.41-2.11a.25.25,0,0,0-.38-.18.57.57,0,0,0-.28.32c-.07.17-.73,2.61-1.07,3.3-.24.5-5,14.12-5.29,14.65a1.37,1.37,0,0,1-1.11.65,39.11,39.11,0,0,1-4.47-.68,1,1,0,0,1-.66-.94c0-.92,6.13-17.61,6.65-19.06,1.08-3,5.15-10.42,5.29-10.8A1.85,1.85,0,0,1,248.57,30.07Z" fill="#2e2d2c"></path><path d="M220.52,23.76c-.1-.63.75-.83,1.59-.87s13.63-1,15-1S247.09,21,248,21c.53,0,.67.09.78.46a9.92,9.92,0,0,1-.67,3.14A10.56,10.56,0,0,1,245,25.91c-1.07.25-4.37,1.49-5.22,1.71s-.89.36-1.09,1-2.76,18.85-3.09,20.06S233.2,63.92,233,64.36a2.12,2.12,0,0,1-1.46.86,29.49,29.49,0,0,1-4-4.2,6.38,6.38,0,0,1-.1-2.94c.17-1.17,1.11-13.91,1.29-14.9s.77-4.39.86-4.9S231,30.63,231.06,30s0-.68-.68-.68-7.79-.07-8.31-.2-.48-.21-.68-.73S220.62,24.45,220.52,23.76Z" fill="#2e2d2c"></path><path d="M299.64,54.3,291,53.61a1.18,1.18,0,0,1-1.11-.86c0-.21-.21-2.76-.36-6.3a.16.16,0,0,1,.14-.17c2.87.1,5.59.26,6.21.27.85,0,1.38-.34,1.51-.69s.07-4.06,0-4.66-.29-1-1-1c-.59-.05-4.25-.39-6.86-.55a.21.21,0,0,1-.18-.23c0-1.12.06-2.27.11-2.71,0-.22.11-1,.23-2a.24.24,0,0,1,.21-.21c1.61,0,2.81-.09,3.08-.08a10.31,10.31,0,0,1,1.82.3c.43.11,4.48.88,4.76,1,.43.1.9-.77.93-1,.07-.59.12-4.93.11-5.11a.39.39,0,0,0-.23-.38c-.14,0-7.49-1.87-9.13-2.24s-5.46-1.16-5.65-1.2a1,1,0,0,0-1.1.91c0,.3-1.38,18-1.56,20-.16,1.79.39,10.53.45,10.95s.37,1.09.77,1.21,5.81,1.19,6.65,1.21,5.27.32,6.1.33a1.91,1.91,0,0,0,1.6-.82c.2-.31,1.8-3.79,2-4.35S300.39,54.35,299.64,54.3Z" fill="#2e2d2c"></path><path d="M279.63,54.14c-.21-.45-3.49-6.81-5.35-10.44a.31.31,0,0,1,0-.25c1.58-4.19,3.56-9,3.85-9.59.5-1,2.8-8.72,2.9-9.11s-.32-1.08-.58-1.38c-.1-.12-.32-.14-.59-.07-1.25.35-4.41,1.7-5.52,2.17a1,1,0,0,0-.53.62c-.45,1.36-1.79,5.43-2,5.95s-4.84,14.26-5,14.74a.28.28,0,0,1-.56-.08c0-.17-1.25-10.71-1.46-11.37s-1.79-13-2-13.78a1.12,1.12,0,0,0-.91-.75c-.48,0-4.24.56-4.66.6a.53.53,0,0,0-.39.56c0,.37.39,3.32.64,5s2,17.59,2.06,18.64,2,15.69,2.16,16.19.4,1.15,1,1.27c.29.06,1.07.19,1.74.28s.79-.51,1.11-1.14,1.29-2.57,1.76-3.32c.32-.51,2.27-4.6,3.65-7.48a.13.13,0,0,1,.24,0c1.27,2.53,3,5.91,3.29,6.59.44,1.07,5.21,9.25,5.42,9.59a1.42,1.42,0,0,0,1.48.43c.24-.19,2-3,2.83-4.2a1.15,1.15,0,0,0,0-1.16C283.14,60.73,279.87,54.66,279.63,54.14Z" fill="#2e2d2c"></path><path d="M154.07,24.76c0-.22-.26-.63-.48-.62-.42,0-4.06,0-4.53,0a1.11,1.11,0,0,0-.82.77c-.08.67-.69,11.79-.71,12.42s0,12.06,0,12.21a.29.29,0,0,1-.54.14c-.27-.4-6.21-15.52-6.54-16.05s-3.37-7.55-3.49-7.77a.46.46,0,0,0-.66-.17c-.21.17-3.49,2.64-3.78,2.84s-.44.53-.41,1.29.21,9.92.07,14.14a92.44,92.44,0,0,0,.06,9.29c.09,1.3.45,9.83.52,10.69,0,.48,1.07.49,1.34.44s3.3.57,3.59.5a1.45,1.45,0,0,0,.64-1c0-.2.06-13.32,0-15.14,0-.91,0,0,0-2.42a.18.18,0,0,1,.33-.08c1.76,2.74,3.87,8.19,5.11,10.24s5.42,9.45,5.8,10,.68,1,1.23.87l1.68-.47c.54-.17.72-.84.8-1.23s.48-21.32.45-22.25S154,37,154,35.49,154.07,25.09,154.07,24.76Z" fill="#2e2d2c"></path><path d="M174.2,32.18c-2-2.61-6.83-3-7.26-3.06s-2.31,0-3.79,0c-.28,0-3.76-.05-4.16,0a1.84,1.84,0,0,0-1.15,1.22c0,.5-.22,8.29-.21,9.08s.06,3.81,0,4.74-.7,11.92-.77,12.26-.06,3.28-.06,5a1.16,1.16,0,0,0,1.07,1.23l11.44,0c2.82,0,5.6-3.75,6.65-5.22a5,5,0,0,0,.88-2.29c.29-2.22.85-6.75.85-9.11C177.66,42.79,175.87,34.41,174.2,32.18Zm-4.82,21.74c-.52.67-1.28,2.45-2.69,2.59-.68.06-1.43.08-2.2.08a.57.57,0,0,1-.52-.66c.14-1.66.38-6,.37-6.71,0-1,.31-10,.37-12.45a.59.59,0,0,1,.57-.61,15.26,15.26,0,0,1,3.23.44c.73.3,1.7,4.58,2,5.31a24.74,24.74,0,0,1,.61,4.69A16.39,16.39,0,0,1,169.38,53.92Z" fill="#2e2d2c"></path><path d="M118.47,67c.27,0,.15.08.51.06,1.65-.14,5.43-.72,7.51-3.06.84-1,1.51-4,2-7.25.16-1,.33-3.51.46-6,.12-2.3-.19-16.91-.16-19.61,0-.09-.19-.72-.51-.85-.67-.26-1.75-.57-2.23-.7a1.65,1.65,0,0,0-.49-.06h-3.09a.61.61,0,0,0-.41.62c0,3.84-.18,22.74-.18,23.39,0,.89-.36,5.19-1.25,5.49a8.47,8.47,0,0,1-3.2.52,2.15,2.15,0,0,1-1.86-2c-.21-1.91-.6-17.3-.61-21.45,0-.29-.51-.52-.79-.52l-2.38.67a2.84,2.84,0,0,0-1.24.74c-.7.69-1.86,1.86-2.35,2.47a2.08,2.08,0,0,0-.23.77c0,8.87.29,16.27.29,17.45a11.42,11.42,0,0,0,2.41,6.6c.09.1.18.22.28.35a4.67,4.67,0,0,0,1.9,1.16C113.89,66.13,117.53,66.85,118.47,67Z" fill="#2e2d2c"></path><path d="M200.65,59.87,189,59.45a1.24,1.24,0,0,1-1.19-.84c0-.18-.1-4.79-.23-6.66a.55.55,0,0,1,.5-.61c1.14,0,3.66.08,4.11.07a2.06,2.06,0,0,0,1.67-.85c.21-.31-.21-5.19-1-5.23l-5.3-.35a.39.39,0,0,1-.34-.41c0-.71,0-2.22.06-2.57s0-3.52.09-4.6a.37.37,0,0,1,.38-.37c.57,0,1.94.14,2.26.21s4.54.55,4.84.57.76-.8.78-1.05c.06-.6,0-4.75,0-4.93s-.41-.55-.56-.59c-.5-.12-11.82-2.23-12-2.28-.73-.2-1.8.83-1.83,1.55,0,.31-.21,19.25-.36,21.26-.13,1.79-.19,11.34-.12,11.77s.42,1.08.84,1.19,6.14,1.07,7,1.07,11.54.13,12.42.12a1.39,1.39,0,0,0,1.38-1C202.53,64.53,201.44,59.91,200.65,59.87Z" fill="#2e2d2c"></path><path d="M214,49a26,26,0,0,0-1.23-2.68.34.34,0,0,1,0-.42c.83-.84,2.69-2.24,3.17-3.23a28.24,28.24,0,0,0,1.38-7.89c-.09-2.09-2.75-7.45-4.33-8.82-1.85-1.61-6.27-1.64-6.66-1.65l-5.71-.07c-.63,0-2.16,1.73-2.25,2.81,0,.49-.25,11.74-.25,12.2,0,2.45.33,16.72.26,15.11,0,.32,0,2.07.63,2.47.11.08,3.89.22,4.3.18s.56-1,.58-1.39c0-.18.05-5.63.05-7.24a.28.28,0,0,1,.25-.29l2.37-.08a.5.5,0,0,1,.45.26,38.48,38.48,0,0,1,2.31,4.82c.33.95,5,10.8,5.22,11.11a1.21,1.21,0,0,0,1.53.14,34.5,34.5,0,0,0,2.35-3,1.46,1.46,0,0,0,.12-1.43C217.68,58,214.2,49.46,214,49ZM204.2,30.83a.44.44,0,0,1,.38-.45c.41,0,3.06.21,4.47.35a2.39,2.39,0,0,1,1.65.94c.66.83.79,2.22,1,3.76a8.36,8.36,0,0,1-1.53,4.83A4.31,4.31,0,0,1,207.7,42a22.33,22.33,0,0,1-3.16.07.48.48,0,0,1-.42-.53C204.18,39.47,204.16,32.56,204.2,30.83Z" fill="#2e2d2c"></path></g></svg> 